# xmcd
#
# Track frame offsets:
#	150
#	14581
#	29847
#	44241
#	60055
#	74297
#	87852
#	104063
#	118502
#	133018
#	147130
#	160552
#	174247
#	188013
#	203260
#	217103
#	231619
#	245288
#	260577
#	274886
#	290045
#	303745
#
# Disc length: 4256 seconds
#
# Revision: 0
# Processed by: cddbd v1.5PL3 Copyright (c) Steve Scherf et al.
# Submitted via: dBpowerAMP V4.0
#
DISCID=4f109e16
DTITLE=Charley Lincoln and Barbecue Bob - The Hicks Brothers
DYEAR=1900
DGENRE=Blues
TTITLE0=Barbecue Blues
TTITLE1=My Wife Drove Me From My Door
TTITLE2=Yo Yo Blues
TTITLE3=It Won't Be Long Now - Part 1
TTITLE4=It's Just Too Bad
TTITLE5=Black Skunk Blues
TTITLE6=Jealous Hearted Blues
TTITLE7=Goin' Up The Country
TTITLE8=Motherless Chile Blues
TTITLE9=If It Looks Like Jelly, Shakes Like Jelly, It Must Be Gelatine
TTITLE10=California Blues
TTITLE11=Poor Boy Long Way From Home
TTITLE12=Darktown Gamblin' - Part 1
TTITLE13=Gamblin' Charlie
TTITLE14=Atlanta Moan
TTITLE15=I'm On My Way Down Home
TTITLE16=She's Coming Back Some Rainy Day
TTITLE17=Doodle Hole Blues
TTITLE18=Mama, Don't Rush Me
TTITLE19=How Long Pretty Mama
TTITLE20=Chain Gang Trouble
TTITLE21=We Sure Got Hard Times
EXTD=
EXTT0=
EXTT1=
EXTT2=
EXTT3=
EXTT4=
EXTT5=
EXTT6=
EXTT7=
EXTT8=
EXTT9=
EXTT10=
EXTT11=
EXTT12=
EXTT13=
EXTT14=
EXTT15=
EXTT16=
EXTT17=
EXTT18=
EXTT19=
EXTT20=
EXTT21=
PLAYORDER=
